<?xml version="1.0" standalone="no"?>
<!DOCTYPE svg PUBLIC "-//W3C//DTD SVG 20010904//EN"
 "http://www.w3.org/TR/2001/REC-SVG-20010904/DTD/svg10.dtd">
<svg version="1.0" xmlns="http://www.w3.org/2000/svg"
 width="860.000000pt" height="1037.000000pt" viewBox="0 0 860.000000 1037.000000"
 preserveAspectRatio="xMidYMid meet">

<g transform="translate(0.000000,1037.000000) scale(0.100000,-0.100000)"
fill="#000000" stroke="none">
<path d="M4745 9950 c-192 -29 -383 -154 -502 -330 -34 -51 -43 -59 -37 -35 4
17 22 63 40 103 l33 72 -31 -17 c-58 -34 -142 -127 -179 -198 -43 -82 -62
-156 -63 -242 -1 -35 -5 -63 -9 -63 -4 0 -26 9 -49 21 -90 46 -198 189 -198
261 0 38 -12 35 -43 -9 -51 -74 -61 -117 -62 -265 0 -76 -1 -138 -1 -138 -12
0 -79 35 -111 59 -50 37 -99 131 -108 211 -6 49 4 148 22 219 6 24 4 23 -37
-10 -23 -19 -63 -52 -89 -75 -25 -22 -69 -57 -97 -77 -102 -73 -197 -199 -233
-310 -21 -64 -28 -126 -38 -333 -6 -135 8 -208 54 -278 l25 -39 -113 6 c-141
6 -251 39 -340 100 -70 48 -109 98 -143 180 -17 42 -26 54 -33 45 -19 -26 -53
-119 -60 -163 -8 -62 -20 -65 -35 -11 -7 26 -15 46 -18 46 -9 0 -36 -99 -51
-184 -16 -95 -7 -236 20 -308 32 -83 98 -167 164 -208 31 -19 56 -38 57 -42 0
-4 -31 -39 -69 -77 -146 -148 -327 -230 -508 -231 l-72 0 20 -57 c63 -185 238
-303 502 -338 26 -3 47 -10 47 -14 0 -13 -177 -306 -204 -338 -27 -32 -119
-81 -204 -109 -78 -25 -53 -39 66 -38 81 0 109 5 166 27 38 15 70 26 72 24 2
-1 -15 -24 -37 -49 -55 -65 -128 -116 -211 -148 -39 -15 -65 -31 -59 -34 26
-17 119 -17 184 -2 38 9 70 16 72 16 2 0 -3 -21 -11 -47 -8 -26 -17 -79 -21
-117 -4 -50 -12 -79 -27 -98 -29 -37 -132 -118 -189 -148 -26 -14 -46 -29 -44
-35 6 -18 110 -65 166 -75 71 -13 148 -12 246 4 44 8 81 13 82 12 1 -1 -18
-42 -43 -91 -41 -84 -85 -247 -70 -262 3 -3 30 11 60 31 105 70 116 63 116
-73 0 -100 -21 -212 -59 -312 -11 -29 -19 -55 -16 -57 2 -2 28 19 58 47 30 28
56 51 59 51 3 0 8 -29 11 -64 8 -84 45 -196 108 -324 39 -79 68 -120 126 -182
l75 -80 -27 -78 c-15 -42 -42 -102 -60 -132 -18 -30 -31 -58 -29 -62 3 -5 39
-8 80 -8 58 0 91 6 140 26 36 14 68 24 70 21 9 -8 -63 -211 -98 -279 -18 -35
-35 -67 -37 -72 -6 -13 41 4 82 30 l37 24 0 -24 c0 -20 -28 -123 -47 -171 -7
-20 90 -29 167 -15 36 6 89 22 119 36 29 13 56 24 59 24 15 0 -8 -182 -32
-250 -42 -114 -41 -109 -18 -103 32 8 95 66 133 122 19 28 37 51 40 51 8 0 13
-32 36 -220 19 -158 25 -645 10 -754 l-9 -58 -39 38 c-37 36 -44 39 -97 39
-50 0 -73 -8 -197 -70 -77 -38 -143 -71 -147 -73 -5 -2 -11 5 -14 15 -29 90
-39 95 -222 101 l-143 5 -80 78 c-202 198 -466 323 -679 323 -217 -1 -406 -96
-620 -313 -268 -270 -385 -513 -500 -1031 -61 -272 -63 -281 -204 -625 -105
-256 -226 -592 -226 -628 0 -13 6 -17 20 -15 17 2 32 37 85 196 79 234 178
497 215 572 63 128 96 237 171 569 70 311 91 379 159 516 103 207 261 392 470
549 176 132 260 162 440 153 204 -9 383 -93 575 -267 44 -40 102 -88 130 -106
48 -33 95 -45 95 -24 0 6 43 10 110 10 103 0 113 -2 134 -23 34 -34 60 -122
121 -417 59 -284 174 -795 308 -1370 l82 -355 28 -3 c15 -2 27 1 27 6 0 5 -31
141 -69 303 -38 162 -99 420 -135 574 -36 154 -84 356 -106 449 -22 93 -40
174 -40 180 0 6 31 -47 68 -119 187 -357 431 -678 605 -797 116 -79 212 -111
387 -128 137 -14 219 1 345 65 82 41 249 161 342 246 21 19 106 95 188 170
264 240 339 326 458 526 58 99 255 358 264 349 6 -6 -77 -275 -147 -476 -32
-91 -101 -271 -153 -401 -53 -130 -113 -280 -132 -335 -49 -132 -215 -604
-215 -610 0 -2 11 -4 24 -4 21 0 28 13 76 153 156 456 208 598 277 761 127
303 165 416 298 896 19 68 41 117 77 175 28 43 57 97 63 119 9 31 19 42 41 49
49 14 199 -1 280 -28 41 -14 84 -25 96 -25 20 0 20 1 5 18 -16 17 -13 20 61
51 503 215 677 269 835 258 114 -8 171 -38 283 -152 99 -100 112 -122 287
-500 91 -197 106 -241 207 -645 116 -463 166 -737 195 -1057 6 -63 10 -73 26
-73 17 0 19 5 15 32 -3 18 -8 74 -11 123 -13 178 -46 386 -120 730 -100 469
-206 784 -386 1145 -117 234 -225 355 -367 412 -84 33 -259 31 -394 -5 -153
-42 -358 -125 -648 -263 -40 -19 -48 -20 -82 -8 -53 18 -233 37 -288 29 -43
-6 -51 -3 -107 35 -100 69 -180 65 -296 -16 l-62 -44 -8 63 c-17 129 0 441 49
885 4 34 11 62 15 62 5 0 9 -8 9 -17 0 -10 11 -36 25 -58 l24 -40 1 55 c0 91
40 310 56 310 2 0 20 -18 40 -40 48 -53 156 -106 233 -115 33 -4 64 -4 69 -1
5 3 -5 33 -22 68 -29 58 -31 70 -31 168 0 105 22 207 62 283 l14 28 38 -58
c37 -58 114 -133 136 -133 8 0 10 33 7 114 -8 210 28 423 90 533 40 69 41 71
63 57 34 -22 87 -35 117 -29 l26 6 -42 43 c-55 54 -70 108 -55 194 14 77 59
139 174 241 67 58 128 87 222 107 98 20 206 62 281 111 l57 37 -44 13 c-25 7
-55 23 -68 35 -34 32 -82 109 -105 170 -22 59 -49 188 -39 188 3 0 26 -7 50
-16 73 -25 190 -36 271 -24 40 6 77 13 82 16 5 4 -23 24 -64 46 -106 58 -212
143 -259 210 l-20 28 93 -7 c107 -7 209 8 283 41 l50 22 -81 42 c-87 46 -197
129 -202 152 -1 9 14 24 35 35 63 33 174 153 215 230 67 129 68 120 -15 145
-120 36 -186 89 -112 90 21 0 145 55 145 64 0 3 -19 10 -42 17 -74 19 -183 79
-241 130 -50 44 -59 59 -77 120 -49 163 -189 390 -329 534 -72 74 -72 74 -45
81 72 18 277 -21 375 -71 43 -23 35 -3 -26 63 -91 98 -222 172 -357 202 l-58
13 45 48 c45 48 149 199 142 206 -3 2 -29 -12 -58 -32 -61 -40 -158 -90 -164
-84 -2 2 14 40 36 84 50 103 64 176 48 253 -7 31 -11 87 -10 125 3 70 -6 83
-32 45 -26 -39 -101 -113 -148 -145 -62 -43 -114 -63 -180 -70 -92 -9 -103 -3
-123 69 -44 158 -114 284 -223 403 -68 73 -186 243 -228 326 -20 39 -25 63
-25 125 l0 77 -21 -19 c-11 -10 -38 -55 -59 -99 -53 -110 -73 -224 -68 -385
l4 -125 -101 51 c-59 29 -135 58 -181 68 -43 10 -108 25 -144 33 -84 19 -219
84 -262 125 -42 40 -100 173 -106 243 -7 88 54 284 93 299 8 3 15 10 15 16 0
11 -30 11 -105 0z m-21 -72 c-58 -55 -124 -171 -123 -217 0 -24 1 -25 12 -7
46 73 110 167 112 164 2 -2 -3 -28 -12 -58 -18 -68 -12 -230 12 -310 22 -71
35 -84 29 -29 l-5 44 23 -38 c46 -77 138 -193 199 -252 34 -33 53 -46 41 -30
-12 17 -42 58 -67 92 -25 34 -45 63 -45 66 0 2 26 -9 58 -25 33 -15 117 -41
188 -57 205 -47 318 -97 454 -200 52 -39 66 -46 69 -33 2 10 -15 33 -43 58
l-47 41 -10 93 c-12 111 0 253 31 351 31 98 36 99 43 7 4 -46 13 -103 21 -128
21 -66 48 -131 53 -127 2 3 -3 44 -12 92 -9 48 -15 89 -12 91 2 2 26 -29 53
-68 27 -40 82 -113 123 -163 104 -126 206 -286 240 -375 28 -72 32 -89 46
-173 6 -39 25 -42 25 -4 0 21 4 22 88 23 114 0 176 28 268 118 l66 64 -6 -45
c-3 -25 -19 -71 -36 -101 -16 -31 -28 -57 -25 -60 2 -3 20 11 40 31 l35 35 0
-37 c0 -80 -55 -212 -136 -328 -48 -70 -44 -84 8 -24 23 27 47 43 78 51 25 7
63 21 85 32 38 20 39 20 26 2 -8 -10 -44 -49 -79 -85 l-64 -66 96 -22 c103
-24 249 -90 306 -139 l35 -30 -55 15 c-78 21 -251 29 -290 13 -16 -7 -30 -15
-30 -17 0 -3 41 -48 90 -101 93 -97 189 -230 241 -334 37 -73 71 -159 65 -165
-2 -2 -25 28 -51 67 -26 39 -49 69 -52 66 -9 -9 26 -100 56 -145 67 -100 169
-184 293 -241 43 -19 77 -38 78 -41 0 -11 -85 -29 -134 -29 -25 0 -46 -4 -46
-9 0 -12 50 -60 92 -89 21 -13 65 -34 98 -46 l61 -22 -42 -33 c-40 -33 -43
-34 -113 -28 -150 13 -322 71 -415 141 -19 14 -36 24 -38 22 -2 -2 5 -27 16
-55 10 -28 16 -51 12 -51 -13 0 -186 157 -227 206 -44 52 -104 142 -104 156 0
4 10 8 23 8 34 0 130 29 145 45 11 10 5 14 -34 20 -152 22 -341 113 -446 213
-22 21 -38 30 -38 22 0 -8 26 -40 59 -71 66 -65 200 -136 314 -166 37 -11 65
-22 61 -26 -4 -4 -38 -7 -76 -7 -109 0 -231 49 -346 139 -59 46 -78 58 -68 43
11 -17 -7 -15 -129 17 -157 42 -208 63 -312 130 -51 33 -93 57 -93 53 0 -27
199 -245 303 -333 32 -27 54 -49 48 -49 -30 0 -264 93 -391 156 -172 85 -221
126 -330 272 -41 55 -77 99 -79 97 -2 -3 15 -37 38 -77 l42 -73 -56 55 c-32
30 -79 84 -106 119 -27 35 -49 59 -49 53 0 -26 72 -228 119 -332 28 -63 49
-115 47 -117 -6 -7 -180 203 -221 267 -64 100 -123 212 -177 334 l-49 111 4
-120 c3 -66 11 -143 19 -172 l15 -51 -43 -89 c-24 -48 -66 -140 -94 -203 -27
-63 -50 -108 -50 -98 0 9 16 78 35 154 19 76 33 139 31 141 -6 6 -43 -88 -64
-162 -40 -137 -46 -189 -47 -363 l0 -173 -23 28 c-38 46 -104 163 -140 248
-44 106 -78 240 -93 369 -10 86 -15 103 -26 94 -7 -6 -19 -31 -25 -56 -10 -40
-12 -43 -20 -23 -4 12 -9 67 -9 122 -1 54 -5 99 -9 99 -4 0 -13 -14 -20 -30
-7 -17 -29 -56 -48 -88 -19 -31 -53 -97 -74 -147 -35 -81 -38 -86 -33 -45 10
70 46 199 72 259 34 80 20 74 -21 -8 -47 -92 -85 -226 -94 -326 l-6 -80 -8 60
c-7 58 5 297 18 360 10 47 78 175 149 282 l65 98 -48 -51 c-51 -55 -124 -159
-161 -233 l-23 -44 -146 6 c-215 8 -368 54 -504 149 -35 24 -37 11 -7 -67 38
-102 174 -216 287 -240 17 -3 32 -10 32 -13 0 -16 -94 -113 -156 -163 -81 -64
-212 -133 -287 -149 -43 -10 -79 -11 -145 -3 -48 5 -89 8 -92 5 -9 -8 79 -79
137 -109 66 -35 169 -63 232 -63 l43 0 -22 -32 c-12 -18 -41 -73 -66 -122 -47
-95 -54 -90 -29 20 17 72 14 94 -7 48 -7 -16 -49 -74 -94 -130 -44 -55 -100
-128 -123 -162 -23 -34 -44 -62 -48 -62 -3 0 -3 23 1 50 4 28 5 50 2 50 -10 0
-75 -126 -107 -205 -17 -44 -42 -120 -54 -170 -22 -87 -23 -89 -30 -52 -12 62
-25 52 -19 -15 4 -45 0 -81 -14 -128 l-19 -65 -6 45 c-24 177 -15 375 24 505
11 39 22 79 25 90 9 33 -82 -73 -126 -146 -22 -36 -48 -88 -59 -115 l-20 -49
0 57 c-1 72 30 230 63 327 23 66 69 156 121 235 19 29 19 29 0 18 -11 -5 -31
-22 -44 -36 -41 -43 -43 -30 -7 42 42 85 106 244 106 266 0 14 -4 14 -37 -4
-20 -11 -38 -18 -40 -16 -2 1 6 24 18 50 24 55 19 69 -14 39 -57 -53 -212
-128 -324 -157 l-53 -14 44 57 c51 66 108 168 126 226 7 22 25 56 39 75 14 19
26 36 27 38 1 2 57 -15 124 -38 67 -22 127 -39 132 -38 6 2 -14 22 -43 45 -30
23 -74 62 -98 87 l-45 45 105 -6 c57 -3 102 -3 99 0 -3 3 -50 28 -105 56 -120
60 -220 134 -273 201 -34 42 -41 61 -52 131 -14 90 -9 180 16 265 l16 56 31
-53 c40 -71 121 -149 189 -182 100 -49 198 -68 340 -66 l127 2 58 -54 c60 -55
148 -108 225 -134 l43 -15 -35 27 c-55 42 -111 106 -102 115 7 7 163 -7 186
-18 13 -6 0 3 -118 80 -108 71 -263 224 -296 291 -12 25 -30 89 -38 141 -15
88 -15 100 0 176 23 109 65 191 138 269 l60 64 -26 -59 c-34 -76 -43 -202 -21
-296 16 -68 64 -186 73 -178 2 3 -5 34 -17 69 -27 82 -37 248 -19 328 16 74
58 155 108 211 l41 45 -24 -60 c-39 -96 -29 -106 20 -22 25 42 47 77 48 77 1
0 2 -48 2 -108 0 -97 3 -112 27 -158 47 -89 135 -152 237 -169 40 -7 43 -6 37
13 -13 40 -25 183 -20 234 3 29 13 76 22 103 l15 50 19 -75 c19 -77 46 -126
34 -61 l-6 34 40 -44 c24 -27 37 -50 33 -59 -19 -51 -33 -123 -33 -174 0 -63
23 -165 46 -206 15 -25 15 -25 9 10 -20 117 -26 189 -19 234 l6 51 25 -70 c42
-115 93 -185 172 -236 75 -48 73 -33 -5 45 -78 77 -122 154 -150 258 -20 77
-19 83 14 60 37 -26 131 -64 141 -58 5 3 9 45 10 93 1 137 42 262 110 343 l29
35 -14 -64 c-8 -35 -14 -84 -12 -109 l3 -45 52 80 c136 210 306 352 474 397
88 24 92 20 33 -36z m-1372 -1788 c106 -50 246 -81 394 -87 l131 -6 -28 -81
c-16 -45 -36 -123 -46 -175 l-18 -94 -54 -35 c-116 -74 -272 -127 -445 -151
-128 -18 -174 -14 -243 19 -35 16 -63 32 -63 35 0 3 21 3 48 -1 63 -8 265 13
361 37 81 21 233 89 215 96 -6 2 -32 -6 -59 -17 -60 -26 -182 -58 -249 -65
-59 -7 -55 -2 43 54 33 18 91 62 128 96 70 64 160 171 151 180 -3 3 -31 12
-63 20 -74 20 -143 57 -193 105 -38 37 -88 100 -79 100 3 0 34 -14 69 -30z
m1387 -252 c6 -17 8 -28 4 -25 -4 4 -22 -7 -40 -25 -18 -17 -33 -29 -33 -25 0
10 49 107 54 107 2 0 9 -14 15 -32z m96 -205 c47 -84 104 -155 189 -236 39
-38 66 -71 59 -73 -45 -19 -125 -85 -230 -191 -110 -111 -213 -192 -264 -208
-23 -8 -25 -42 -5 -89 19 -45 29 -50 74 -35 56 18 223 191 307 319 79 120 131
180 158 180 10 0 37 -13 60 -29 23 -15 66 -41 96 -56 l54 -27 -61 68 -62 68
43 13 c65 20 95 17 186 -15 67 -24 88 -37 100 -59 25 -49 41 -134 42 -238 l1
-100 20 60 c10 33 24 95 31 138 l11 78 25 -48 c36 -73 99 -148 204 -249 165
-157 227 -277 264 -515 39 -258 10 -757 -62 -1064 -18 -76 58 64 105 193 l26
73 12 -51 c11 -48 10 -53 -13 -89 -20 -30 -26 -54 -31 -122 -8 -122 -10 -129
-67 -181 -45 -43 -48 -48 -27 -48 34 0 89 47 111 94 13 29 19 65 19 122 0 53
5 87 14 99 13 19 15 17 32 -24 15 -37 19 -41 25 -25 4 10 8 42 8 70 l1 50 65
47 c62 45 85 71 72 83 -3 4 -33 -13 -67 -36 -33 -24 -63 -40 -67 -36 -9 9 55
131 88 166 31 35 77 49 90 29 10 -15 8 -54 -17 -279 -22 -204 -39 -275 -88
-375 -84 -170 -236 -373 -321 -429 -56 -37 -105 -35 -140 5 -14 17 -27 30 -29
28 -1 -2 -15 -26 -30 -52 -15 -27 -73 -96 -129 -154 -217 -227 -487 -423 -772
-563 -277 -136 -433 -188 -590 -197 -171 -10 -294 42 -650 279 -313 207 -430
323 -630 623 -193 288 -309 599 -380 1018 -29 173 -43 378 -27 410 6 12 13 87
16 167 5 129 14 202 32 250 3 8 19 -25 35 -75 17 -49 34 -94 38 -98 4 -4 11
61 14 145 9 213 29 318 74 393 75 124 240 351 248 343 3 -2 0 -44 -5 -93 -5
-50 -7 -105 -3 -124 6 -33 7 -30 38 55 39 109 115 263 162 327 32 43 38 47 76
47 55 0 207 33 302 65 42 14 80 23 84 20 5 -2 11 -33 15 -69 3 -35 15 -100 26
-143 20 -80 70 -226 75 -221 2 2 8 77 14 168 6 91 22 217 34 280 l24 115 7
-55 c13 -98 58 -253 94 -330 l36 -75 7 126 c3 70 10 132 14 139 5 7 20 -20 39
-71 62 -166 162 -292 272 -344 86 -41 94 -50 95 -109 l1 -51 10 35 c5 19 14
40 20 47 6 8 4 22 -6 42 -24 46 -45 136 -56 235 l-9 90 59 180 60 181 62 57
63 57 33 -32 c18 -18 49 -60 67 -94z m395 -204 c64 -46 63 -52 -6 -63 l-41 -7
-45 68 c-44 65 -88 145 -88 159 0 3 27 -21 60 -54 33 -33 87 -79 120 -103z
m1001 -166 c15 -46 68 -177 103 -256 15 -32 21 -55 14 -51 -40 23 -159 128
-238 210 -86 91 -111 131 -72 121 14 -4 69 -1 169 12 6 0 17 -16 24 -36z
m-627 1 c3 -9 6 -46 5 -82 l-1 -67 -12 60 c-7 33 -16 70 -20 83 -5 16 -3 22 7
22 8 0 18 -7 21 -16z m-2959 -1694 c19 -47 47 -137 61 -200 49 -219 139 -453
229 -597 47 -76 -2 -52 -101 50 -153 159 -233 349 -259 617 -8 78 14 234 30
218 2 -2 20 -42 40 -88z m2888 -1460 c26 -83 26 -87 12 -172 -44 -270 -60
-480 -59 -778 0 -277 1 -300 23 -370 12 -41 23 -82 23 -90 1 -8 -135 -197
-302 -420 -222 -296 -331 -432 -404 -506 -154 -155 -278 -214 -444 -214 -97 1
-130 7 -217 43 -33 14 -96 33 -140 42 -44 9 -96 20 -116 25 l-35 10 -18 152
c-45 403 -81 606 -171 971 -57 231 -91 333 -102 300 -7 -19 36 -245 62 -332
32 -109 63 -267 130 -675 30 -182 57 -346 60 -363 7 -40 1 -41 -56 -5 -107 68
-178 185 -275 452 -31 85 -72 192 -91 238 -34 78 -35 83 -19 105 79 108 109
185 137 346 40 233 36 559 -11 934 l-19 148 25 55 c18 41 28 53 37 47 7 -5 44
-34 82 -65 100 -79 170 -124 335 -215 80 -45 186 -104 237 -133 111 -63 169
-72 286 -46 93 21 147 49 252 130 95 73 172 123 315 202 124 68 270 162 360
232 36 28 68 48 71 44 3 -4 18 -45 32 -92z m324 -1200 c93 -53 95 -86 14 -207
-33 -48 -90 -124 -126 -167 -99 -117 -185 -235 -225 -305 -142 -251 -246 -365
-674 -736 -159 -138 -326 -242 -431 -270 -149 -38 -398 3 -553 92 -166 95
-374 350 -545 668 -179 331 -250 505 -301 728 -6 27 -3 29 156 108 130 64 169
79 192 75 44 -9 75 -33 93 -71 15 -32 15 -37 -7 -104 -27 -83 -77 -168 -91
-154 -13 13 -23 161 -15 207 6 32 10 35 31 30 38 -9 32 22 -6 35 -52 18 -59 4
-59 -113 0 -106 20 -224 43 -260 21 -31 66 -160 86 -246 39 -158 149 -376 237
-465 78 -79 134 -106 325 -155 85 -21 177 -49 205 -61 68 -30 206 -37 294 -15
143 36 296 131 388 240 23 28 145 191 270 361 125 171 301 408 390 528 89 119
163 222 165 228 1 6 -3 13 -10 16 -9 3 -71 -71 -130 -156 -6 -8 -12 5 -21 47
l-10 42 65 41 c122 77 171 84 250 39z"/>
<path d="M3690 8963 c0 -163 82 -330 209 -427 28 -21 48 -43 45 -48 -11 -17
-171 -2 -239 22 -33 11 -84 36 -112 55 -29 19 -55 35 -57 35 -8 0 10 -53 32
-97 37 -71 101 -113 197 -127 60 -9 54 -1 -19 29 -52 21 -114 63 -115 77 -1 4
25 -3 57 -14 86 -32 284 -32 364 0 52 21 87 47 76 57 -2 2 -25 -2 -50 -10 -47
-14 -47 -14 -105 24 -131 85 -230 234 -254 381 -15 91 -29 112 -29 43z"/>
<path d="M5840 8683 c-201 -92 -483 -99 -692 -17 -34 13 -63 22 -65 20 -3 -2
24 -20 60 -40 166 -93 409 -102 636 -23 63 22 69 23 61 7 -16 -30 -112 -111
-161 -136 -54 -27 -181 -64 -221 -64 -15 0 -30 -4 -33 -10 -9 -15 100 -12 173
5 34 8 82 24 105 35 l42 21 -55 -52 c-66 -63 -151 -104 -258 -127 -142 -29
-280 6 -404 104 -32 25 -58 41 -58 36 0 -26 96 -114 158 -144 60 -30 76 -33
174 -36 118 -4 222 16 314 60 l50 24 55 -49 c105 -97 249 -138 378 -107 74 18
71 28 -7 22 -124 -8 -251 35 -340 117 l-44 40 41 48 c22 26 50 71 62 98 12 28
33 63 46 79 22 27 63 98 63 111 0 10 -25 3 -80 -22z"/>
<path d="M3415 7147 c55 -16 57 -18 118 -105 30 -42 86 -107 124 -143 78 -73
103 -82 213 -72 l60 6 0 52 0 52 -91 6 c-116 7 -149 24 -268 132 -92 84 -93
85 -145 84 l-51 -1 40 -11z"/>
<path d="M3950 6962 c0 -18 28 -82 36 -82 9 0 -5 50 -22 74 -8 11 -14 15 -14
8z"/>
<path d="M5350 6791 c-155 -34 -235 -69 -336 -145 -82 -61 -244 -236 -219
-236 3 0 36 24 73 53 264 210 535 317 810 320 162 2 94 21 -88 24 -123 2 -173
-1 -240 -16z"/>
<path d="M3622 6698 c9 -7 58 -42 109 -78 51 -36 133 -103 181 -149 48 -46 88
-79 88 -73 0 22 -96 136 -154 183 -61 49 -169 111 -216 123 -22 6 -23 5 -8 -6z"/>
<path d="M3952 6665 c49 -47 68 -55 68 -30 0 18 -76 75 -99 75 -10 0 1 -17 31
-45z"/>
<path d="M5263 6676 c-82 -31 -135 -71 -131 -99 3 -20 8 -22 73 -21 121 3 231
60 223 116 -3 20 -9 23 -53 25 -33 2 -72 -6 -112 -21z"/>
<path d="M3041 6671 c-55 -15 -31 -28 61 -33 134 -7 344 -79 594 -203 105 -52
196 -95 203 -95 6 0 -46 39 -116 86 -126 85 -319 186 -418 218 -96 30 -263 44
-324 27z"/>
<path d="M4856 6610 c-76 -52 -146 -121 -173 -174 -11 -21 13 -3 83 60 55 49
119 106 143 127 63 53 36 46 -53 -13z"/>
<path d="M5680 6604 c-222 -65 -837 -257 -850 -265 -29 -19 74 3 225 47 155
44 714 229 723 239 9 9 -9 5 -98 -21z"/>
<path d="M5720 6579 c-160 -43 -229 -66 -320 -106 -58 -25 -163 -68 -235 -94
-92 -34 -121 -48 -98 -49 17 0 58 8 91 19 34 10 73 16 87 13 34 -6 132 21 260
71 55 21 163 61 240 88 77 27 132 49 123 49 -44 0 -203 -45 -364 -105 -97 -36
-178 -64 -180 -62 -6 6 286 126 382 157 83 26 93 40 14 19z"/>
<path d="M3362 6518 c-19 -19 -14 -53 11 -76 62 -58 237 -103 266 -68 23 27
-14 65 -108 114 -84 43 -145 54 -169 30z"/>
<path d="M3745 6510 c8 -13 110 -82 155 -105 l35 -17 -30 32 c-31 33 -90 71
-138 89 -18 7 -26 7 -22 1z"/>
<path d="M2940 6484 c0 -19 52 -93 82 -116 81 -62 233 -120 361 -138 38 -6
119 -7 185 -3 98 6 110 8 72 14 -25 4 -82 8 -126 8 -115 1 -238 27 -309 64
-33 18 -95 65 -137 106 -43 40 -78 71 -78 67 0 -4 9 -26 20 -49 l21 -42 -46
48 c-25 27 -45 46 -45 41z"/>
<path d="M5685 6466 c-81 -22 -134 -45 -105 -46 28 0 181 40 208 55 l27 14
-25 0 c-14 0 -61 -10 -105 -23z"/>
<path d="M2985 6306 c93 -84 236 -126 440 -131 124 -3 132 -3 70 6 -209 30
-346 66 -465 122 -90 43 -90 43 -45 3z"/>
<path d="M2992 6229 c8 -25 72 -49 128 -48 l55 1 -61 13 c-34 7 -76 21 -94 30
-22 11 -31 13 -28 4z"/>
<path d="M4124 6115 c-3 -19 -5 -94 -2 -165 3 -108 7 -133 22 -148 17 -16 17
-10 15 148 -2 91 -1 171 2 179 2 8 -4 16 -13 19 -13 2 -19 -6 -24 -33z"/>
<path d="M4266 5852 c-3 -5 8 -22 24 -37 28 -26 30 -27 30 -8 0 11 -8 27 -18
36 -21 19 -28 21 -36 9z"/>
<path d="M4151 5345 l-44 -36 -35 33 -34 33 -29 -34 -29 -35 -24 23 c-14 13
-29 20 -35 17 -32 -20 -82 -241 -121 -538 -23 -177 -61 -541 -56 -545 1 -2 56
19 122 45 116 47 121 48 152 34 29 -14 35 -14 67 1 33 16 39 16 65 2 27 -14
33 -14 60 0 27 14 33 14 60 0 38 -20 58 -19 175 5 84 17 100 18 123 6 36 -19
191 -20 212 -2 8 7 35 16 60 19 41 5 50 2 99 -33 30 -22 56 -38 58 -37 4 4
-115 364 -182 552 -54 151 -183 485 -192 494 -2 3 -11 -2 -20 -11 -15 -15 -17
-15 -33 5 -17 20 -19 20 -43 4 -23 -15 -26 -15 -43 4 -17 19 -18 19 -46 -8
l-28 -27 -29 34 -28 34 -36 -27 c-20 -15 -39 -27 -43 -27 -4 0 -22 11 -40 25
-18 14 -34 25 -36 25 -2 0 -23 -16 -47 -35z m79 -30 c29 -31 42 -31 88 0 l37
25 30 -36 30 -36 24 26 c23 25 25 25 43 9 16 -14 22 -15 40 -4 17 11 23 9 43
-9 15 -14 25 -18 30 -11 12 21 22 11 43 -41 11 -29 23 -61 28 -72 6 -17 3 -18
-47 -12 -78 8 -143 14 -234 20 -176 12 -218 17 -233 25 -9 5 -26 2 -45 -7 -28
-14 -35 -14 -73 0 -38 13 -43 13 -64 -4 -12 -10 -36 -18 -52 -18 -28 0 -30 2
-25 29 4 17 13 46 22 67 15 36 15 36 41 19 25 -16 27 -16 55 11 l29 28 28 -27
c15 -15 32 -27 38 -27 5 1 27 16 49 35 22 19 43 35 46 35 3 0 16 -11 29 -25z
m559 -581 c37 -15 42 -21 65 -92 30 -88 27 -94 -54 -100 -48 -3 -72 -3 -177 0
-48 1 -142 8 -174 14 -24 4 -47 1 -66 -10 -23 -11 -33 -12 -42 -3 -8 8 -19 8
-44 -1 -42 -15 -104 -15 -145 -1 -23 8 -41 8 -67 -1 -28 -9 -39 -9 -50 0 -8 7
-33 10 -55 8 -22 -2 -40 -1 -40 3 0 4 15 28 33 55 67 101 172 135 362 115 155
-15 229 -13 305 9 81 23 100 24 149 4z m-882 -204 c26 -15 38 -17 59 -10 19 8
34 6 59 -6 25 -12 38 -13 54 -5 26 14 68 14 77 0 4 -7 21 -9 46 -5 21 4 47 2
57 -4 14 -7 22 -6 31 5 16 19 34 19 50 0 11 -13 15 -12 37 5 28 22 73 26 104
9 14 -7 30 -7 56 2 31 10 38 9 63 -10 24 -17 30 -18 40 -6 16 19 40 19 68 0
19 -14 24 -14 47 1 17 11 37 15 60 11 19 -3 37 -1 40 4 4 5 14 9 24 9 14 0 23
-17 38 -67 11 -38 19 -69 18 -71 -2 -2 -15 3 -30 11 -28 14 -77 8 -135 -16
-31 -13 -154 -10 -196 5 -24 8 -56 6 -145 -9 -109 -19 -115 -19 -153 -2 -34
15 -43 16 -66 4 -21 -11 -31 -11 -60 1 -31 13 -38 13 -67 -3 -30 -16 -35 -16
-65 -1 -33 15 -35 15 -128 -28 -52 -23 -99 -43 -104 -43 -8 -1 -1 144 10 201
8 41 60 49 111 18z"/>
<path d="M6307 5113 c-22 -36 -57 -76 -85 -97 -26 -19 -60 -49 -77 -66 -45
-47 -63 -55 -85 -35 -19 17 -51 17 -57 0 -4 -13 53 -45 81 -45 12 0 45 19 73
43 28 23 71 59 96 79 48 39 101 133 95 165 -2 13 -14 0 -41 -44z"/>
<path d="M5356 3631 c-6 -10 -59 -226 -77 -318 -10 -49 -10 -66 -1 -75 8 -8
15 -8 21 -3 18 19 81 308 81 372 0 31 -12 44 -24 24z"/>
<path d="M4080 3535 c0 -18 52 -105 60 -100 17 10 11 37 -16 72 -22 29 -44 43
-44 28z"/>
<path d="M4060 3467 c0 -9 17 -69 39 -134 58 -175 107 -271 129 -249 13 13
-38 181 -83 272 -47 93 -85 144 -85 111z"/>
<path d="M4691 3383 c-7 -25 -19 -59 -27 -75 -8 -15 -10 -28 -5 -28 18 0 53
60 58 99 8 56 -13 59 -26 4z"/>
<path d="M5332 3233 c-11 -32 -52 -143 -90 -248 -140 -382 -232 -676 -249
-800 -13 -98 17 -32 101 223 146 443 274 868 263 878 -3 3 -14 -21 -25 -53z"/>
<path d="M7087 2363 c-50 -126 -179 -684 -316 -1373 -54 -270 -56 -285 -38
-288 10 -2 20 -2 23 0 6 6 354 1691 350 1695 -2 2 -10 -13 -19 -34z"/>
<path d="M1701 2241 c-12 -8 -13 -114 -7 -682 3 -371 9 -716 12 -766 6 -82 9
-93 25 -93 18 0 19 17 19 483 0 471 -14 988 -28 1040 -5 19 -11 24 -21 18z"/>
<path d="M6325 2063 c-8 -126 -1 -796 12 -1170 l6 -193 24 0 c21 0 23 4 23 53
-1 127 -49 1429 -53 1433 -3 3 -8 -52 -12 -123z"/>
</g>
</svg>
