<?xml version="1.0" standalone="no"?>
<!DOCTYPE svg PUBLIC "-//W3C//DTD SVG 20010904//EN"
 "http://www.w3.org/TR/2001/REC-SVG-20010904/DTD/svg10.dtd">
<svg version="1.0" xmlns="http://www.w3.org/2000/svg"
 width="300.000000pt" height="300.000000pt" viewBox="0 0 300.000000 300.000000"
 preserveAspectRatio="xMidYMid meet">
<metadata>
Created by potrace 1.10, written by Peter Selinger 2001-2011
</metadata>
<g transform="translate(0.000000,300.000000) scale(0.100000,-0.100000)"
fill="#000000" stroke="none">
<path d="M2780 1440 c0 -5 6 -13 14 -17 13 -8 36 -45 36 -58 0 -4 -12 1 -27
10 -35 23 -80 21 -137 -6 -39 -18 -50 -19 -80 -9 -20 6 -38 16 -41 21 -4 5
-11 9 -17 9 -6 0 1 -15 16 -34 31 -42 32 -46 6 -46 -27 0 -25 -17 3 -26 20 -7
19 -9 -18 -25 -22 -10 -57 -19 -77 -19 -21 0 -38 -3 -38 -8 0 -4 12 -25 26
-45 14 -21 24 -40 22 -41 -32 -24 -57 -36 -75 -36 -13 0 -23 -4 -23 -8 0 -11
50 -57 76 -70 19 -10 21 -16 13 -54 -4 -24 -8 -46 -9 -50 0 -5 -9 -17 -21 -29
-20 -20 -20 -21 -2 -34 10 -7 30 -16 45 -19 25 -5 27 -8 18 -31 -6 -15 -10
-38 -10 -51 0 -19 4 -24 18 -20 59 18 72 18 78 1 4 -9 1 -28 -5 -42 -15 -33
-9 -38 23 -18 22 14 29 15 42 5 8 -8 32 -16 52 -19 l37 -6 -1 -110 c-1 -61 -6
-145 -12 -189 -13 -102 1 -137 98 -242 40 -43 77 -88 83 -101 5 -12 16 -23 24
-23 23 0 -14 59 -84 131 -62 65 -88 106 -37 58 26 -23 26 -23 13 -1 -8 12 -16
22 -19 22 -18 1 -45 35 -46 58 -1 15 -3 27 -4 27 -9 0 -7 91 2 135 6 30 10 85
9 122 -2 65 -1 68 21 65 12 -2 24 -9 26 -15 2 -7 8 -10 12 -7 12 7 50 -35 50
-54 0 -9 9 -29 20 -46 11 -16 20 -35 20 -42 0 -19 83 -152 92 -147 10 6 1 27
-39 96 -40 69 -41 81 -5 62 29 -15 62 -19 46 -6 -5 5 -28 14 -50 22 -27 8 -46
21 -53 37 -16 34 -15 34 32 8 44 -26 77 -32 77 -15 0 6 -9 10 -20 10 -25 0
-71 21 -65 30 3 4 -3 14 -13 21 -15 13 -16 12 -3 -3 7 -10 10 -18 7 -18 -15 0
-46 21 -46 31 0 6 4 7 10 4 5 -3 7 0 4 8 -3 8 -31 24 -62 36 -66 23 -192 135
-192 169 0 11 -3 27 -6 35 -6 17 15 26 91 37 l50 8 -53 1 -53 1 7 48 c3 26 10
55 15 64 5 9 9 33 9 54 0 29 -3 34 -13 26 -7 -6 -23 -9 -35 -5 -19 4 -20 8
-10 20 7 9 21 19 33 23 19 8 19 9 -2 9 -28 1 -29 12 -3 29 11 7 20 17 20 24 0
6 -10 2 -22 -9 -13 -11 -32 -25 -43 -31 -19 -11 -19 -11 3 -12 12 0 22 -4 22
-10 0 -5 -5 -10 -11 -10 -14 0 -119 -106 -119 -120 0 -17 20 -11 27 8 4 9 19
30 34 46 24 26 30 28 65 19 33 -8 39 -13 36 -34 -1 -13 -7 -25 -12 -27 -6 -2
-10 -22 -10 -43 0 -24 -4 -38 -10 -34 -5 3 -10 16 -10 28 0 12 -5 29 -11 37
-8 11 -9 6 -5 -20 4 -19 4 -61 0 -92 l-7 -58 -23 25 c-19 20 -24 37 -24 76 0
31 -4 48 -10 44 -20 -12 -6 -111 20 -135 3 -3 5 -15 6 -27 0 -16 -5 -23 -18
-23 -11 0 -16 5 -13 10 9 14 -8 12 -24 -2 -11 -11 -13 -8 -9 12 3 14 9 33 13
42 5 13 0 19 -26 25 l-33 9 32 13 c18 7 32 17 32 22 0 5 -13 3 -30 -6 -42 -22
-54 -18 -32 10 12 15 20 41 20 66 1 22 8 52 17 66 19 29 11 45 -9 18 -13 -18
-14 -18 -50 4 -44 27 -46 35 -7 26 17 -3 32 -2 36 4 4 7 -3 11 -17 11 -21 0
-20 2 10 20 37 23 38 27 15 52 -9 10 -11 18 -5 18 6 0 14 -4 17 -10 8 -12 25
-13 25 -1 0 5 -14 14 -31 22 l-31 12 45 12 c71 18 129 65 80 65 -12 0 -14 3
-6 11 17 17 32 3 58 -57 13 -30 29 -54 35 -54 7 0 3 14 -9 34 -27 43 -26 49 4
44 14 -3 47 -1 73 4 26 5 56 10 67 12 11 2 40 -7 65 -20 25 -13 62 -26 83 -29
38 -6 38 -6 36 -50 -2 -25 1 -48 5 -52 4 -4 6 19 4 52 -2 45 -7 60 -18 61 -8
1 -19 3 -25 4 -5 1 -13 2 -17 1 -4 0 -30 11 -58 25 -61 31 -71 31 -138 11 -61
-19 -99 -8 -142 38 l-25 27 35 -14 c54 -23 90 -30 90 -18 0 5 -9 10 -20 10
-35 0 -22 18 25 33 48 17 83 12 128 -18 l26 -17 -4 31 c-2 17 -6 36 -10 43 -4
7 7 -1 23 -18 l30 -32 22 22 22 21 -16 -32 c-9 -18 -16 -34 -16 -35 0 -2 23
-5 50 -6 28 -1 50 2 50 8 0 5 -18 10 -40 10 l-40 0 20 33 c11 17 20 35 20 40
0 14 -24 7 -48 -15 -22 -21 -24 -22 -33 -5 -6 9 -28 26 -49 37 -44 23 -50 24
-50 10z m-146 -571 c-3 -5 -10 -7 -15 -3 -5 3 -7 10 -3 15 3 5 10 7 15 3 5 -3
7 -10 3 -15z m1 -126 c30 -31 55 -58 55 -60 0 -2 -13 3 -29 11 -43 23 -111
106 -86 106 2 0 29 -26 60 -57z m-38 -35 c-3 -8 -6 -5 -6 6 -1 11 2 17 5 13 3
-3 4 -12 1 -19z"/>
<path d="M2925 1280 c3 -5 19 -10 36 -10 16 0 29 5 29 10 0 6 -16 10 -36 10
-21 0 -33 -4 -29 -10z"/>
<path d="M2836 1129 c10 -12 42 -40 69 -62 l50 -40 -45 7 c-36 5 -40 4 -21 -4
13 -6 21 -13 18 -16 -9 -9 -47 6 -47 18 0 12 -30 37 -44 38 -5 0 -1 -10 10
-22 20 -23 10 -19 -38 14 -14 10 -29 18 -33 18 -9 0 4 -79 17 -103 15 -30 4
-29 -30 3 -23 21 -32 25 -32 13 0 -13 -3 -13 -15 -3 -20 16 -19 5 2 -31 21
-36 37 -38 29 -3 -6 23 -3 22 36 -15 35 -35 58 -50 58 -38 0 1 -11 29 -25 62
-13 33 -25 68 -25 77 0 15 5 14 36 -7 19 -13 44 -27 55 -30 17 -6 18 -8 3 -31
-24 -35 -9 -29 29 13 33 35 35 36 66 23 59 -24 43 7 -29 57 -25 17 -56 43 -69
57 -29 31 -52 35 -25 5z"/>
<path d="M2975 1060 c3 -5 8 -10 11 -10 2 0 4 5 4 10 0 6 -5 10 -11 10 -5 0
-7 -4 -4 -10z"/>
<path d="M2545 990 c3 -5 8 -10 11 -10 2 0 4 5 4 10 0 6 -5 10 -11 10 -5 0 -7
-4 -4 -10z"/>
<path d="M2914 970 c-25 -10 -29 -15 -38 -52 -9 -39 8 -35 19 5 9 29 13 32 48
31 38 -1 49 9 21 20 -19 7 -23 7 -50 -4z"/>
<path d="M2917 943 c-11 -10 -8 -41 4 -49 16 -9 41 20 33 39 -6 17 -25 22 -37
10z"/>
<path d="M2970 916 c0 -8 -12 -24 -27 -35 -16 -11 -22 -21 -15 -21 15 0 62 45
62 60 0 5 -4 10 -10 10 -5 0 -10 -6 -10 -14z"/>
<path d="M2561 890 c0 -8 4 -24 9 -35 9 -20 9 -20 9 0 0 11 -4 27 -9 35 -9 13
-10 13 -9 0z"/>
<path d="M2670 838 c-20 -21 -26 -38 -14 -38 3 0 15 11 26 25 20 25 52 33 63
15 3 -5 11 -10 17 -10 7 0 6 6 -2 15 -18 22 -66 18 -90 -7z"/>
<path d="M2696 831 c-10 -16 5 -42 23 -39 21 4 21 42 -1 46 -9 2 -19 -1 -22
-7z"/>
<path d="M2840 803 c0 -5 4 -15 10 -23 11 -18 25 -7 17 15 -6 15 -27 21 -27 8z"/>
<path d="M2739 784 c-9 -11 -23 -14 -48 -10 -34 6 -35 5 -17 -9 28 -21 49 -19
76 10 13 14 19 25 13 25 -6 0 -16 -7 -24 -16z"/>
<path d="M2756 703 c15 -21 29 -40 31 -42 2 -2 6 -1 9 2 9 8 -43 77 -58 77 -6
0 2 -17 18 -37z"/>
<path d="M2942 691 c-51 -17 -97 -49 -87 -59 3 -3 13 2 22 10 10 9 42 24 71
33 28 10 52 21 52 26 0 11 5 12 -58 -10z"/>
<path d="M2979 614 c-10 -12 -23 -15 -58 -10 -50 7 -46 -8 5 -18 23 -5 37 -2
55 13 13 10 21 22 18 25 -3 4 -12 -1 -20 -10z"/>
<path d="M2771 465 c-12 -25 -21 -59 -20 -77 1 -31 2 -30 11 11 5 24 18 59 29
77 10 19 15 34 10 34 -5 0 -18 -20 -30 -45z"/>
<path d="M2771 333 c7 -12 15 -20 18 -17 3 2 -3 12 -13 22 -17 16 -18 16 -5
-5z"/>
<path d="M2761 274 c0 -11 3 -14 6 -6 3 7 2 16 -1 19 -3 4 -6 -2 -5 -13z"/>
<path d="M2958 183 c-24 -29 -28 -49 -12 -72 20 -27 40 -27 48 2 9 34 6 45 -5
18 -9 -23 -11 -24 -27 -8 -16 16 -15 19 10 41 15 13 25 26 21 30 -10 10 -19 7
-35 -11z"/>
<path d="M2904 129 c-3 -6 0 -18 9 -26 13 -13 14 -12 10 11 -6 29 -9 31 -19
15z"/>
</g>
</svg>
