<?xml version="1.0" standalone="no"?>
<!DOCTYPE svg PUBLIC "-//W3C//DTD SVG 20010904//EN"
 "http://www.w3.org/TR/2001/REC-SVG-20010904/DTD/svg10.dtd">
<svg version="1.0" xmlns="http://www.w3.org/2000/svg"
 width="50.000000pt" height="50.000000pt" viewBox="0 0 223.000000 226.000000"
 preserveAspectRatio="xMidYMid meet">
<metadata>
Created by potrace 1.10, written by Peter Selinger 2001-2011
</metadata>
<g transform="translate(0.000000,226.000000) scale(0.100000,-0.100000)"
fill="#00000" stroke="none">
<path d="M802 2240 c0 -14 2 -19 5 -12 2 6 2 18 0 25 -3 6 -5 1 -5 -13z"/>
<path d="M906 2247 c3 -10 9 -15 12 -12 3 3 0 11 -7 18 -10 9 -11 8 -5 -6z"/>
<path d="M916 2148 c-30 -62 -85 -178 -123 -258 -484 -1003 -597 -1239 -637
-1319 -25 -52 -46 -95 -46 -97 0 -2 123 -4 273 -4 l274 0 13 27 c7 16 53 120
103 233 49 113 125 286 169 385 44 99 109 248 145 330 36 83 66 151 68 153 2
3 42 -86 160 -358 35 -80 83 -190 108 -246 l44 -101 -51 1 c-28 0 -160 0 -293
-2 l-242 -2 48 -107 c27 -60 69 -152 95 -206 l45 -97 93 -1 c51 -1 285 -4 521
-8 283 -4 426 -3 423 4 -4 11 -158 344 -557 1210 l-258 560 -48 2 -48 2 43
-12 c48 -13 55 -28 20 -39 -20 -7 -19 -7 5 -4 21 3 27 0 23 -11 -3 -8 -2 -12
3 -9 5 3 17 -6 26 -20 9 -15 12 -23 6 -20 -6 4 -11 0 -11 -9 0 -11 5 -15 15
-11 8 3 15 1 15 -4 0 -6 -9 -10 -20 -10 -11 0 -20 -4 -20 -9 0 -5 9 -7 19 -4
15 4 25 -5 41 -37 16 -30 19 -45 11 -53 -17 -17 -13 -45 9 -57 11 -6 20 -7 20
-3 0 4 9 -5 19 -21 11 -16 17 -35 14 -43 -3 -8 0 -13 8 -11 8 2 13 -3 11 -11
-1 -7 2 -19 9 -27 6 -8 9 -20 5 -29 -3 -8 0 -14 6 -12 6 1 20 -20 30 -46 10
-27 25 -55 33 -64 10 -9 12 -20 6 -31 -11 -22 -3 -42 13 -36 8 3 17 -3 20 -13
4 -10 3 -19 -3 -21 -11 -4 -3 -32 10 -32 4 0 6 8 3 18 -2 9 0 6 6 -8 7 -14 18
-38 26 -53 8 -16 12 -33 9 -38 -3 -4 1 -20 10 -33 10 -14 13 -31 9 -38 -6 -9
-3 -9 10 1 9 8 16 10 15 5 -4 -14 12 -57 28 -73 8 -7 12 -22 10 -32 -3 -10 1
-20 9 -23 8 -3 14 -12 14 -20 0 -8 11 -32 25 -52 14 -21 22 -42 17 -48 -9 -12
-7 -74 2 -84 4 -3 5 14 3 37 -3 39 -2 41 10 25 7 -10 11 -24 9 -31 -3 -7 -1
-15 5 -18 17 -11 50 -85 43 -97 -4 -6 -3 -8 3 -5 13 8 26 -20 16 -35 -4 -7 -1
-8 7 -3 10 6 12 4 7 -8 -3 -10 -2 -17 3 -17 5 0 12 -11 16 -25 3 -14 10 -25
15 -25 5 0 9 -9 9 -19 0 -11 6 -22 13 -24 7 -3 4 -6 -6 -6 -10 -1 -27 4 -38
10 -15 8 -24 7 -37 -3 -13 -11 -15 -11 -7 2 8 13 6 13 -8 1 -9 -7 -23 -11 -32
-7 -8 3 -14 2 -12 -2 1 -4 -6 -18 -15 -31 -15 -21 -18 -22 -24 -8 -7 20 4 40
18 31 7 -4 8 -2 4 5 -6 9 -11 9 -21 1 -8 -6 -19 -10 -27 -8 -20 4 -88 -39 -88
-57 0 -13 4 -14 20 -5 11 6 20 14 20 19 0 9 51 34 57 28 2 -3 -5 -40 -17 -83
-11 -43 -20 -87 -20 -99 0 -24 -26 -65 -42 -65 -6 0 -8 16 -5 43 4 23 9 64 13
92 l7 50 -35 -38 c-40 -42 -70 -47 -92 -15 -11 15 -16 18 -16 8 -2 -67 -23
-140 -41 -140 -17 0 -2 208 17 238 21 33 41 27 49 -14 7 -42 25 -74 40 -74 6
0 20 6 30 14 16 12 17 16 6 30 -7 9 -17 13 -23 10 -5 -3 -5 -11 2 -19 9 -10 7
-13 -7 -10 -10 1 -17 8 -16 14 2 6 -2 11 -7 11 -5 0 -9 3 -9 8 6 36 -15 67
-51 77 -17 4 -21 3 -11 -3 8 -6 9 -12 3 -16 -6 -3 -13 -2 -17 4 -12 19 -26 11
-15 -9 7 -15 7 -22 -2 -27 -7 -4 -10 -4 -6 1 4 4 3 16 -3 26 -7 14 -19 18 -43
16 -19 -1 -34 -4 -34 -7 1 -18 -4 -23 -11 -12 -7 11 -9 10 -14 -3 -5 -10 -3
-14 4 -9 7 4 10 2 8 -5 -3 -7 -9 -11 -14 -9 -9 3 -11 6 -14 33 0 6 -13 12 -27
13 -19 1 -27 -4 -31 -19 -4 -13 -11 -18 -20 -14 -11 4 -13 1 -8 -12 13 -32 18
-103 7 -103 -5 0 -12 10 -16 22 -5 19 -8 21 -16 8 -8 -13 -10 -12 -11 5 -1 11
-1 24 0 28 1 5 -8 26 -21 48 -22 39 -40 47 -68 29 -9 -6 -17 -5 -22 3 -5 7 -8
-3 -9 -23 -1 -19 -3 -39 -4 -45 -2 -5 -3 -20 -4 -33 -1 -14 -5 -20 -12 -17 -6
5 -9 -5 -8 -27 4 -55 0 -90 -11 -83 -6 4 -8 -7 -4 -27 5 -32 4 -32 -16 10 -11
23 -18 48 -14 54 4 7 3 8 -5 4 -15 -10 -42 54 -35 85 5 19 4 21 -5 9 -9 -13
-11 -13 -11 3 0 9 -4 17 -10 17 -5 0 -10 9 -10 20 0 11 -4 20 -10 20 -5 0 -7
6 -4 13 2 7 -4 24 -16 37 -11 13 -20 26 -20 30 0 4 47 6 105 6 58 -1 105 2
105 7 0 4 75 7 168 6 167 -2 222 7 222 33 0 9 -3 8 -10 -2 -9 -13 -11 -13 -20
0 -5 8 -7 26 -4 40 4 17 3 21 -4 12 -6 -9 -12 -1 -21 28 -7 25 -16 38 -23 34
-8 -5 -9 -2 -5 9 20 49 20 53 5 33 -13 -17 -15 -17 -21 -2 -7 18 1 48 12 42 4
-3 7 4 7 14 0 18 -11 20 -34 6 -7 -4 -11 -4 -10 1 1 4 -11 35 -27 67 -15 33
-28 66 -28 73 0 7 -4 13 -9 13 -4 0 -8 8 -8 18 0 9 -13 43 -29 74 -16 31 -26
59 -23 62 3 3 -3 15 -13 26 -17 19 -17 21 0 40 13 15 15 24 8 31 -13 13 -33 4
-33 -14 0 -7 4 -6 10 3 5 8 12 11 16 7 4 -4 1 -14 -7 -23 -14 -13 -17 -11 -32
23 -8 21 -18 50 -21 64 -3 14 -11 26 -18 26 -7 0 -22 4 -33 8 -13 4 -16 4 -7
-2 9 -7 3 -27 -24 -84 -21 -41 -40 -76 -43 -79 -3 -3 -7 -16 -9 -30 -1 -14 -9
-38 -17 -55 -8 -16 -31 -68 -51 -115 -38 -91 -52 -113 -64 -105 -5 3 -11 1
-15 -5 -3 -5 3 -10 14 -10 18 0 19 -3 9 -25 -6 -14 -15 -25 -20 -25 -4 0 -8
-12 -8 -27 l-1 -28 -14 25 c-16 28 -21 19 -5 -10 7 -13 6 -26 -4 -45 -8 -14
-16 -25 -19 -23 -3 2 -9 -1 -14 -6 -5 -5 -3 -6 5 -2 18 11 15 -4 -13 -53 -14
-23 -25 -52 -25 -63 0 -12 -4 -17 -12 -12 -8 5 -9 0 -6 -14 4 -12 2 -20 -3
-16 -5 3 -9 0 -9 -7 0 -7 -9 -31 -19 -53 -10 -23 -27 -59 -36 -81 -45 -106
-45 -107 -59 -96 -9 8 -13 7 -13 -4 0 -8 4 -12 8 -10 4 3 10 -2 13 -11 4 -10
2 -13 -6 -8 -8 5 -9 2 -5 -10 4 -10 3 -15 -3 -11 -6 3 -10 -3 -10 -14 0 -12
-5 -19 -12 -16 -28 8 -123 14 -98 5 15 -5 -57 -8 -182 -9 -233 -1 -228 -3
-183 68 13 22 27 51 31 65 3 14 11 23 17 19 6 -3 7 -1 3 5 -7 12 15 59 42 93
7 9 12 20 10 25 -3 13 40 106 61 129 10 11 24 41 31 68 7 26 17 47 21 47 5 0
9 5 9 11 0 17 53 129 62 129 4 0 10 16 14 35 6 32 14 40 37 36 4 -1 2 9 -4 21
-12 22 -11 22 6 8 17 -14 18 -14 6 8 -9 18 -9 22 1 20 7 -2 13 6 13 18 0 11 5
27 10 35 19 25 69 140 67 152 -1 4 2 7 8 7 5 0 10 6 10 13 0 8 9 22 20 32 12
10 19 24 16 31 -3 7 2 20 10 31 14 17 15 16 11 -10 -3 -17 -1 -25 4 -20 5 5
11 31 13 59 5 60 55 177 70 165 7 -6 12 0 13 19 1 15 11 44 23 64 11 20 20 45
20 56 0 11 5 20 11 20 5 0 7 -5 3 -12 -4 -7 -3 -8 4 -4 6 4 9 13 6 20 -3 8 -1
17 5 20 6 4 7 14 4 23 -4 11 -3 14 5 9 8 -5 12 1 12 18 0 13 3 26 8 28 12 5
63 108 57 117 -3 5 1 11 8 14 10 4 13 -2 10 -21 -3 -26 -3 -26 7 2 5 16 7 33
5 37 -3 4 -1 19 5 33 6 17 6 26 -1 26 -5 0 -34 -51 -63 -112z m488 -200 c-3
-4 -11 -5 -19 -1 -16 5 -20 34 -8 47 8 8 33 -35 27 -46z m-753 -401 c-10 -9
-11 -8 -5 6 3 10 9 15 12 12 3 -3 0 -11 -7 -18z m993 -103 c3 -8 2 -12 -4 -9
-6 3 -10 10 -10 16 0 14 7 11 14 -7z m-243 -337 c-10 -9 -11 -8 -5 6 3 10 9
15 12 12 3 -3 0 -11 -7 -18z m-1060 -200 c-10 -9 -11 -8 -5 6 3 10 9 15 12 12
3 -3 0 -11 -7 -18z m875 -205 c17 -51 35 -97 41 -103 12 -12 28 47 39 144 4
39 11 57 20 57 18 0 18 -35 -2 -135 -9 -44 -18 -90 -20 -102 -3 -16 -11 -23
-28 -23 -19 0 -28 11 -49 58 -14 31 -29 69 -32 85 -12 47 -21 38 -40 -41 -17
-74 -41 -129 -52 -119 -8 9 39 262 50 269 28 18 43 0 73 -90z m238 90 c2 -4
-4 -32 -15 -62 -11 -30 -22 -85 -26 -122 -5 -55 -9 -67 -25 -70 -18 -3 -26
-17 -10 -19 4 -1 16 -6 26 -11 15 -8 18 -7 13 5 -3 9 -1 17 5 19 6 2 11 28 13
58 1 30 8 78 16 105 l14 50 3 -39 c2 -21 -1 -42 -7 -45 -7 -5 -8 -18 -1 -41 8
-27 7 -36 -5 -43 -8 -4 -15 -13 -15 -20 0 -7 4 -6 10 3 8 13 10 12 10 -2 0
-10 -4 -18 -10 -18 -25 0 -6 -15 21 -17 17 -1 39 -8 48 -15 14 -12 15 -11 1 6
-13 17 -12 21 13 42 24 20 25 24 10 25 -16 1 -16 2 1 6 15 4 16 7 5 14 -12 8
-12 11 1 19 8 6 23 8 33 6 10 -3 27 4 37 14 13 13 22 16 26 9 4 -6 2 -14 -3
-18 -6 -3 -10 -13 -11 -21 0 -8 -3 -32 -6 -52 -3 -21 -1 -40 4 -43 6 -4 7 2 3
12 -5 15 -4 16 8 7 20 -17 57 0 69 32 6 14 12 43 14 65 3 41 34 99 35 67 1 -9
-4 -20 -9 -23 -6 -4 -8 -11 -4 -16 3 -5 1 -15 -4 -22 -5 -7 -7 -21 -5 -32 2
-11 4 -28 4 -39 0 -10 5 -24 12 -30 16 -15 136 -14 164 2 26 15 36 15 28 2 -3
-6 1 -7 10 -3 11 4 13 8 5 13 -8 5 -6 11 5 20 14 12 14 15 -2 30 -12 11 -22
14 -29 8 -7 -5 -35 -11 -63 -15 -50 -6 -51 -5 -51 21 0 14 3 26 8 27 4 0 21 2
37 3 67 5 84 15 82 51 -1 18 -6 31 -11 28 -4 -3 -28 -7 -52 -9 -38 -3 -44 -1
-44 16 0 11 7 20 16 20 8 0 13 -4 10 -8 -2 -4 11 -7 30 -7 19 0 34 3 34 6 0 4
7 10 16 13 8 3 12 2 9 -4 -3 -6 -2 -10 3 -10 6 0 8 -10 4 -22 -4 -15 -2 -19 7
-13 10 6 11 2 6 -15 -4 -14 -3 -20 3 -16 5 3 13 -6 16 -19 4 -16 11 -23 18
-19 7 4 8 3 4 -4 -4 -6 2 -29 14 -51 11 -22 20 -49 20 -61 0 -11 4 -20 10 -20
5 0 7 8 4 18 -5 14 -4 15 5 2 20 -28 11 -31 -71 -28 -59 2 -82 7 -81 15 2 7
-4 10 -12 7 -8 -4 -13 -10 -10 -14 3 -5 -60 -9 -140 -9 -132 -2 -145 0 -146
16 -1 17 -2 17 -6 0 -4 -17 -15 -18 -137 -14 -73 2 -137 6 -142 9 -5 3 -17 4
-26 3 -25 -4 -23 16 2 22 13 4 20 14 21 32 2 52 10 125 15 130 3 3 9 -1 14 -9
5 -9 5 -17 0 -20 -5 -3 -8 -24 -6 -45 2 -22 -1 -46 -6 -52 -6 -7 -9 -13 -7
-14 37 -7 36 -9 41 96 4 73 11 110 23 129 16 25 48 35 59 18z m484 -15 c3 -15
-3 -17 -54 -15 -54 3 -59 1 -65 -22 -15 -55 -13 -58 36 -48 48 10 75 6 75 -12
0 -5 -19 -10 -42 -10 -73 0 -84 -7 -95 -56 l-10 -44 56 0 c31 0 68 7 83 14 37
19 45 3 10 -20 -17 -12 -52 -20 -94 -22 -84 -5 -84 -4 -70 126 14 120 26 134
111 130 44 -2 57 -7 59 -21z m-576 -52 c-2 -14 -8 -25 -13 -25 -14 0 -11 38 4
43 6 3 13 6 13 6 1 1 -1 -10 -4 -24z m-92 -81 c0 -14 -3 -14 -15 -4 -8 7 -15
14 -15 16 0 2 7 4 15 4 8 0 15 -7 15 -16z m-90 -19 c0 -8 4 -15 10 -15 5 0 7
-7 4 -15 -4 -8 -10 -13 -14 -10 -5 3 -6 -5 -2 -17 3 -11 1 -19 -4 -16 -5 4 -9
-8 -10 -25 l-1 -32 13 30 c7 17 13 36 14 43 0 7 5 10 11 7 6 -4 8 -14 5 -22
-3 -8 -2 -12 3 -9 5 3 14 -1 21 -9 7 -8 19 -15 27 -15 8 0 11 -4 8 -10 -10
-15 -35 -12 -35 5 0 8 -4 15 -10 15 -5 0 -7 -6 -4 -14 4 -10 -7 -16 -43 -20
-26 -3 -57 -4 -68 -2 -11 3 -23 5 -27 5 -5 1 -8 6 -8 12 0 8 4 8 14 0 20 -16
66 40 66 80 0 21 4 28 12 23 8 -5 9 -2 5 9 -3 10 -2 17 3 17 6 0 10 -7 10 -15z"/>
<path d="M1945 650 c-19 -8 -19 -9 3 -9 12 -1 22 4 22 9 0 6 -1 10 -2 9 -2 0
-12 -4 -23 -9z"/>
<path d="M1442 620 c0 -14 2 -19 5 -12 2 6 2 18 0 25 -3 6 -5 1 -5 -13z"/>
<path d="M1997 597 c-3 -8 1 -14 8 -14 7 0 11 6 8 14 -3 7 -6 13 -8 13 -2 0
-5 -6 -8 -13z"/>
<path d="M1592 560 c0 -14 2 -19 5 -12 2 6 2 18 0 25 -3 6 -5 1 -5 -13z"/>
<path d="M1721 564 c0 -11 3 -14 6 -6 3 7 2 16 -1 19 -3 4 -6 -2 -5 -13z"/>
<path d="M1986 556 c3 -7 -7 -23 -22 -35 -15 -11 -21 -21 -14 -21 16 0 50 39
50 57 0 7 -4 13 -10 13 -5 0 -7 -6 -4 -14z"/>
<path d="M1707 533 c-4 -3 -7 -13 -7 -22 1 -13 3 -13 11 2 11 19 8 33 -4 20z"/>
<path d="M1336 513 c-6 -14 -5 -15 5 -6 7 7 10 15 7 18 -3 3 -9 -2 -12 -12z"/>
<path d="M1666 512 c-3 -5 1 -9 9 -9 8 0 12 4 9 9 -3 4 -7 8 -9 8 -2 0 -6 -4
-9 -8z"/>
<path d="M1770 510 c-9 -6 -10 -10 -3 -10 6 0 15 5 18 10 8 12 4 12 -15 0z"/>
<path d="M1820 510 c-23 -7 -23 -8 -3 -9 12 -1 25 4 28 9 3 6 5 10 3 9 -2 -1
-14 -5 -28 -9z"/>
<path d="M2025 510 c-3 -5 -1 -10 4 -10 6 0 11 5 11 10 0 6 -2 10 -4 10 -3 0
-8 -4 -11 -10z"/>
<path d="M1126 515 c-16 -12 -17 -15 -4 -15 9 0 18 7 22 15 7 18 6 18 -18 0z"/>
<path d="M1001 2243 c-1 -12 -7 -23 -13 -26 -7 -3 -3 -4 10 -4 24 1 25 3 12
32 -8 19 -9 19 -9 -2z"/>
<path d="M1020 2249 c0 -5 5 -7 10 -4 6 3 10 8 10 11 0 2 -4 4 -10 4 -5 0 -10
-5 -10 -11z"/>
<path d="M1346 2205 c-9 -26 -7 -32 5 -12 6 10 9 21 6 23 -2 3 -7 -2 -11 -11z"/>
<path d="M1280 2145 c0 -5 5 -17 10 -25 5 -8 10 -10 10 -5 0 6 -5 17 -10 25
-5 8 -10 11 -10 5z"/>
<path d="M802 2100 c0 -14 2 -19 5 -12 2 6 2 18 0 25 -3 6 -5 1 -5 -13z"/>
<path d="M1271 2104 c0 -11 3 -14 6 -6 3 7 2 16 -1 19 -3 4 -6 -2 -5 -13z"/>
<path d="M1432 2100 c0 -14 2 -19 5 -12 2 6 2 18 0 25 -3 6 -5 1 -5 -13z"/>
<path d="M941 2054 c0 -11 3 -14 6 -6 3 7 2 16 -1 19 -3 4 -6 -2 -5 -13z"/>
<path d="M641 1924 c0 -11 3 -14 6 -6 3 7 2 16 -1 19 -3 4 -6 -2 -5 -13z"/>
<path d="M718 1933 c7 -3 16 -2 19 1 4 3 -2 6 -13 5 -11 0 -14 -3 -6 -6z"/>
<path d="M862 1900 c0 -14 2 -19 5 -12 2 6 2 18 0 25 -3 6 -5 1 -5 -13z"/>
<path d="M1396 1896 c3 -9 11 -16 16 -16 13 0 5 23 -10 28 -7 2 -10 -2 -6 -12z"/>
<path d="M1388 1863 c7 -3 16 -2 19 1 4 3 -2 6 -13 5 -11 0 -14 -3 -6 -6z"/>
<path d="M642 1764 c-1 -13 0 -24 2 -24 7 0 14 40 7 44 -4 3 -8 -6 -9 -20z"/>
<path d="M685 1769 c-4 -6 -5 -12 -2 -15 2 -3 7 2 10 11 7 17 1 20 -8 4z"/>
<path d="M1591 1764 c0 -11 3 -14 6 -6 3 7 2 16 -1 19 -3 4 -6 -2 -5 -13z"/>
<path d="M770 1755 c-7 -9 -11 -17 -9 -20 3 -2 10 5 17 15 14 24 10 26 -8 5z"/>
<path d="M1471 1753 c0 -4 4 -17 9 -28 8 -19 9 -19 9 2 1 12 -3 25 -9 28 -5 3
-10 3 -9 -2z"/>
<path d="M736 1713 c-6 -14 -5 -15 5 -6 7 7 10 15 7 18 -3 3 -9 -2 -12 -12z"/>
<path d="M1576 1687 c3 -10 9 -15 12 -12 3 3 0 11 -7 18 -10 9 -11 8 -5 -6z"/>
<path d="M640 1675 c0 -8 2 -15 4 -15 2 0 6 7 10 15 3 8 1 15 -4 15 -6 0 -10
-7 -10 -15z"/>
<path d="M1440 1635 c0 -8 4 -15 10 -15 5 0 7 7 4 15 -4 8 -8 15 -10 15 -2 0
-4 -7 -4 -15z"/>
<path d="M518 1613 c7 -3 16 -2 19 1 4 3 -2 6 -13 5 -11 0 -14 -3 -6 -6z"/>
<path d="M1623 1605 c0 -8 4 -15 9 -15 4 0 8 7 8 15 0 8 -4 15 -8 15 -5 0 -9
-7 -9 -15z"/>
<path d="M1671 1563 c-1 -12 -7 -24 -13 -26 -10 -4 -10 -6 0 -6 15 -1 26 23
19 41 -3 7 -6 3 -6 -9z"/>
<path d="M563 1544 c1 -21 19 -26 34 -9 4 4 3 5 -4 1 -6 -3 -16 2 -22 11 -9
16 -10 16 -8 -3z"/>
<path d="M1752 1540 c0 -14 2 -19 5 -12 2 6 2 18 0 25 -3 6 -5 1 -5 -13z"/>
<path d="M482 1530 c0 -14 2 -19 5 -12 2 6 2 18 0 25 -3 6 -5 1 -5 -13z"/>
<path d="M1170 1481 c0 -6 4 -13 10 -16 6 -3 7 1 4 9 -7 18 -14 21 -14 7z"/>
<path d="M1250 1474 c0 -8 5 -12 10 -9 6 4 8 11 5 16 -9 14 -15 11 -15 -7z"/>
<path d="M1015 1470 c-3 -5 -1 -10 4 -10 6 0 11 5 11 10 0 6 -2 10 -4 10 -3 0
-8 -4 -11 -10z"/>
<path d="M1752 1450 c0 -19 2 -27 5 -17 2 9 2 25 0 35 -3 9 -5 1 -5 -18z"/>
<path d="M620 1445 c0 -8 2 -15 4 -15 2 0 6 7 10 15 3 8 1 15 -4 15 -6 0 -10
-7 -10 -15z"/>
<path d="M960 1445 c0 -8 2 -15 4 -15 2 0 6 7 10 15 3 8 1 15 -4 15 -6 0 -10
-7 -10 -15z"/>
<path d="M1606 1413 c-4 -9 -2 -21 4 -27 8 -8 9 -6 4 8 -5 13 -4 17 4 12 8 -5
10 -2 6 8 -8 20 -10 20 -18 -1z"/>
<path d="M610 1404 c0 -16 -2 -17 -10 -4 -6 9 -10 10 -10 3 0 -19 20 -26 26
-8 4 9 4 19 0 22 -3 4 -6 -2 -6 -13z"/>
<path d="M1731 1404 c0 -11 3 -14 6 -6 3 7 2 16 -1 19 -3 4 -6 -2 -5 -13z"/>
<path d="M480 1390 c0 -11 4 -20 9 -20 5 0 7 9 4 20 -3 11 -7 20 -9 20 -2 0
-4 -9 -4 -20z"/>
<path d="M1752 1365 c0 -16 2 -22 5 -12 2 9 2 23 0 30 -3 6 -5 -1 -5 -18z"/>
<path d="M985 1370 c-3 -5 -1 -18 5 -27 11 -17 11 -16 5 1 -3 11 0 23 7 28 9
5 10 8 1 8 -6 0 -15 -4 -18 -10z"/>
<path d="M1726 1367 c3 -10 9 -15 12 -12 3 3 0 11 -7 18 -10 9 -11 8 -5 -6z"/>
<path d="M1310 1335 c7 -9 15 -13 17 -11 7 7 -7 26 -19 26 -6 0 -6 -6 2 -15z"/>
<path d="M965 1310 c-4 -12 -5 -24 -2 -27 3 -2 8 5 12 17 4 12 5 24 2 27 -3 2
-8 -5 -12 -17z"/>
<path d="M1090 1306 c0 -2 7 -7 16 -10 8 -3 12 -2 9 4 -6 10 -25 14 -25 6z"/>
<path d="M1208 1303 c6 -2 18 -2 25 0 6 3 1 5 -13 5 -14 0 -19 -2 -12 -5z"/>
<path d="M1345 1290 c-3 -5 -2 -18 4 -27 7 -14 9 -12 8 10 -2 30 -3 31 -12 17z"/>
<path d="M543 1248 c1 -15 6 -23 11 -18 4 4 4 16 -2 26 -9 16 -10 14 -9 -8z"/>
<path d="M1432 1220 c0 -14 2 -19 5 -12 2 6 2 18 0 25 -3 6 -5 1 -5 -13z"/>
<path d="M1911 1214 c0 -11 3 -14 6 -6 3 7 2 16 -1 19 -3 4 -6 -2 -5 -13z"/>
<path d="M929 1198 c-12 -23 -12 -23 10 -4 23 21 26 26 11 26 -5 0 -15 -10
-21 -22z"/>
<path d="M1280 1214 c0 -5 7 -18 15 -28 8 -11 15 -16 15 -10 0 5 -7 18 -15 28
-8 11 -15 16 -15 10z"/>
<path d="M1826 1167 c3 -10 9 -15 12 -12 3 3 0 11 -7 18 -10 9 -11 8 -5 -6z"/>
<path d="M481 1154 c0 -11 3 -14 6 -6 3 7 2 16 -1 19 -3 4 -6 -2 -5 -13z"/>
<path d="M1281 1124 c0 -11 3 -14 6 -6 3 7 2 16 -1 19 -3 4 -6 -2 -5 -13z"/>
<path d="M900 1114 c0 -8 5 -12 10 -9 6 3 10 10 10 16 0 5 -4 9 -10 9 -5 0
-10 -7 -10 -16z"/>
<path d="M1282 1050 c0 -14 2 -19 5 -12 2 6 2 18 0 25 -3 6 -5 1 -5 -13z"/>
<path d="M1906 1045 c-3 -8 -1 -15 4 -15 6 0 10 7 10 15 0 8 -2 15 -4 15 -2 0
-6 -7 -10 -15z"/>
<path d="M1366 993 c-6 -14 -5 -15 5 -6 7 7 10 15 7 18 -3 3 -9 -2 -12 -12z"/>
<path d="M805 970 c3 -5 8 -10 11 -10 2 0 4 5 4 10 0 6 -5 10 -11 10 -5 0 -7
-4 -4 -10z"/>
<path d="M2065 970 c3 -5 8 -10 11 -10 2 0 4 5 4 10 0 6 -5 10 -11 10 -5 0 -7
-4 -4 -10z"/>
<path d="M1871 883 c-1 -12 4 -25 9 -28 12 -7 12 2 0 30 -8 19 -9 19 -9 -2z"/>
<path d="M1974 873 c-2 -27 -1 -27 14 3 8 15 8 21 -1 21 -7 0 -13 -11 -13 -24z"/>
<path d="M1168 863 c6 -2 18 -2 25 0 6 3 1 5 -13 5 -14 0 -19 -2 -12 -5z"/>
<path d="M978 853 c12 -2 32 -2 45 0 12 2 2 4 -23 4 -25 0 -35 -2 -22 -4z"/>
<path d="M1310 853 c19 -3 38 -9 41 -15 4 -5 9 -3 12 6 5 13 -2 16 -41 14 -40
-1 -42 -2 -12 -5z"/>
<path d="M955 830 c-3 -5 -2 -10 4 -10 5 0 13 5 16 10 3 6 2 10 -4 10 -5 0
-13 -4 -16 -10z"/>
<path d="M1243 833 c9 -2 23 -2 30 0 6 3 -1 5 -18 5 -16 0 -22 -2 -12 -5z"/>
<path d="M1225 790 c9 -16 18 -30 21 -30 2 0 -2 14 -11 30 -9 17 -18 30 -21
30 -2 0 2 -13 11 -30z"/>
<path d="M1586 798 c-3 -13 -1 -27 4 -32 7 -7 10 1 10 22 0 37 -5 41 -14 10z"/>
<path d="M1629 811 c7 -5 11 -14 7 -20 -5 -7 -1 -9 8 -5 24 9 19 34 -6 34 -17
0 -19 -3 -9 -9z"/>
<path d="M302 770 c-18 -29 -15 -38 4 -12 9 13 14 25 12 27 -2 2 -9 -5 -16
-15z"/>
<path d="M871 764 c0 -11 3 -14 6 -6 3 7 2 16 -1 19 -3 4 -6 -2 -5 -13z"/>
<path d="M1240 729 c0 -5 5 -7 10 -4 6 3 10 8 10 11 0 2 -4 4 -10 4 -5 0 -10
-5 -10 -11z"/>
<path d="M2030 731 c0 -5 5 -13 10 -16 6 -3 10 -2 10 4 0 5 -4 13 -10 16 -5 3
-10 2 -10 -4z"/>
<path d="M2066 725 c4 -8 8 -15 10 -15 2 0 4 7 4 15 0 8 -4 15 -10 15 -5 0 -7
-7 -4 -15z"/>
<path d="M880 722 c0 -5 7 -9 15 -9 8 0 15 4 15 9 0 4 -7 8 -15 8 -8 0 -15 -4
-15 -8z"/>
<path d="M172 708 c-7 -7 -12 -16 -12 -21 0 -5 7 -1 16 8 9 9 14 18 12 20 -2
3 -10 -1 -16 -7z"/>
<path d="M1010 695 c0 -5 5 -17 10 -25 5 -8 10 -10 10 -5 0 6 -5 17 -10 25 -5
8 -10 11 -10 5z"/>
<path d="M2071 674 c0 -11 3 -14 6 -6 3 7 2 16 -1 19 -3 4 -6 -2 -5 -13z"/>
<path d="M1051 661 c-8 -5 -9 -11 -3 -15 5 -3 12 1 16 9 6 17 6 18 -13 6z"/>
<path d="M2060 645 c0 -5 5 -17 10 -25 5 -8 10 -10 10 -5 0 6 -5 17 -10 25 -5
8 -10 11 -10 5z"/>
<path d="M966 615 c-3 -9 -5 -31 -5 -48 1 -27 3 -24 9 13 8 48 6 61 -4 35z"/>
<path d="M224 609 c-3 -6 -2 -15 3 -20 5 -5 9 -1 9 11 0 23 -2 24 -12 9z"/>
<path d="M85 571 c-3 -2 -5 -9 -5 -15 0 -6 5 -4 10 4 8 12 10 12 11 -5 0 -15
2 -16 6 -5 3 8 11 18 17 22 6 4 0 6 -12 5 -13 -1 -25 -3 -27 -6z"/>
<path d="M2152 550 c0 -14 2 -19 5 -12 2 6 2 18 0 25 -3 6 -5 1 -5 -13z"/>
<path d="M168 503 c6 -2 18 -2 25 0 6 3 1 5 -13 5 -14 0 -19 -2 -12 -5z"/>
<path d="M288 503 c6 -2 18 -2 25 0 6 3 1 5 -13 5 -14 0 -19 -2 -12 -5z"/>
<path d="M433 503 c9 -2 23 -2 30 0 6 3 -1 5 -18 5 -16 0 -22 -2 -12 -5z"/>
<path d="M2140 486 c0 -8 4 -17 9 -20 5 -4 7 3 4 14 -6 23 -13 26 -13 6z"/>
<path d="M1120 429 c0 -5 5 -7 10 -4 6 3 10 8 10 11 0 2 -4 4 -10 4 -5 0 -10
-5 -10 -11z"/>
<path d="M1759 418 c7 -9 9 -23 5 -30 -6 -10 -4 -11 7 0 11 10 10 15 -6 30
-17 15 -18 15 -6 0z"/>
<path d="M281 404 c0 -11 3 -14 6 -6 3 7 2 16 -1 19 -3 4 -6 -2 -5 -13z"/>
<path d="M336 401 c-10 -11 -16 -26 -13 -33 4 -9 6 -7 6 4 1 9 9 21 18 27 10
5 15 12 12 15 -3 4 -14 -3 -23 -13z"/>
<path d="M914 411 c4 -5 1 -12 -4 -14 -6 -3 -5 -4 2 -3 15 3 23 26 8 26 -6 0
-9 -4 -6 -9z"/>
<path d="M1039 409 c-46 -10 -107 -46 -119 -69 -6 -10 -10 -32 -10 -48 0 -31
26 -59 99 -105 19 -12 36 -27 38 -33 2 -6 -30 -20 -71 -32 -77 -23 -99 -38
-75 -53 36 -22 136 6 187 53 30 29 28 42 -3 22 -23 -15 -25 -15 -19 0 3 9 10
13 15 10 13 -8 11 20 -3 39 -7 9 -35 32 -63 50 -83 54 -85 122 -3 119 46 -2
88 17 88 39 0 21 -6 21 -61 8z m17 -24 c-20 -15 -36 -19 -36 -10 0 5 38 23 50
24 3 0 -4 -6 -14 -14z m-118 -90 c-3 -3 -9 2 -12 12 -6 14 -5 15 5 6 7 -7 10
-15 7 -18z m82 -93 c0 -5 -21 8 -57 36 -18 13 -30 28 -27 34 5 7 84 -59 84
-70z m35 -12 c10 -11 14 -20 9 -20 -5 0 -15 9 -22 20 -7 11 -11 20 -9 20 2 0
12 -9 22 -20z m-5 -68 c0 -13 -71 -41 -103 -40 -36 1 -29 8 15 15 18 3 44 11
58 19 30 16 30 16 30 6z"/>
<path d="M1630 410 c-8 -5 -12 -10 -7 -10 27 0 -91 -130 -119 -130 -4 0 -4 27
-1 60 4 32 3 61 -1 63 -4 3 -18 1 -31 -4 -22 -9 -23 -13 -18 -67 4 -37 1 -77
-8 -112 -21 -78 -20 -110 4 -110 27 0 34 14 40 90 5 57 9 65 26 65 13 0 19 -7
19 -18 -1 -9 2 -17 7 -17 5 0 9 -5 9 -10 0 -11 10 -25 48 -65 18 -19 19 -25 7
-25 -8 0 -15 4 -15 10 0 5 -5 9 -12 7 -7 -1 -12 5 -13 14 0 8 -8 23 -17 33
-17 17 -22 29 -19 52 1 6 -6 11 -14 11 -20 0 -12 -25 27 -88 33 -54 47 -62 93
-53 34 6 81 41 70 52 -3 3 -11 0 -17 -6 -19 -19 -63 -14 -85 11 -21 22 -67
107 -61 111 18 10 107 85 119 101 28 33 5 58 -31 35z m-144 -87 c-11 -11 -17
4 -9 23 7 18 8 18 11 1 2 -10 1 -21 -2 -24z m4 -37 c0 -8 -4 -18 -10 -21 -5
-3 -10 3 -10 14 0 12 5 21 10 21 6 0 10 -6 10 -14z m-21 -125 c-7 -22 -16 -41
-21 -41 -10 0 -11 14 0 24 4 4 7 15 8 24 3 53 4 56 15 45 7 -7 7 -22 -2 -52z"/>
<path d="M1826 411 c-14 -5 -23 -25 -33 -72 -13 -66 -11 -95 7 -84 5 3 10 2
10 -3 0 -6 -7 -13 -16 -16 -23 -9 -27 -8 -20 9 3 9 0 15 -9 15 -16 0 -21 -35
-6 -44 5 -3 3 -32 -4 -66 -7 -33 -10 -60 -6 -60 19 1 31 22 42 77 l13 61 50
15 51 14 9 -79 c5 -43 12 -78 17 -78 10 0 16 160 8 224 -4 32 -12 53 -25 62
-10 7 -24 18 -31 24 -14 11 -30 12 -57 1z m44 -17 c0 -8 -19 -13 -24 -6 -3 5
1 9 9 9 8 0 15 -2 15 -3z m6 -23 c-3 -5 0 -11 8 -14 8 -3 16 -24 18 -46 l4
-41 -48 0 -47 0 15 35 c19 47 18 61 -3 44 -14 -12 -16 -12 -11 1 2 8 15 16 27
16 12 1 24 4 28 8 9 9 15 7 9 -3z m41 -53 c-3 -7 -5 -2 -5 12 0 14 2 19 5 13
2 -7 2 -19 0 -25z m-97 -2 c0 -3 -4 -8 -10 -11 -5 -3 -10 -1 -10 4 0 6 5 11
10 11 6 0 10 -2 10 -4z"/>
<path d="M2008 402 c4 -10 7 -12 10 -4 2 7 9 9 15 5 7 -3 8 -2 4 2 -14 16 -36
14 -29 -3z"/>
<path d="M375 378 c-3 -18 -10 -63 -15 -100 -10 -67 -25 -118 -35 -118 -10 0
-45 81 -64 149 -11 39 -22 75 -26 81 -9 14 -65 12 -69 -2 -2 -7 -13 -67 -26
-133 -12 -66 -24 -133 -27 -149 -5 -26 -4 -27 14 -17 12 6 23 23 27 38 13 58
51 183 56 183 5 0 28 -55 67 -155 16 -40 24 -51 46 -53 31 -4 42 13 51 83 4
28 14 82 23 121 16 70 14 104 -6 104 -6 0 -13 -15 -16 -32z m-155 -15 c0 -7 5
-13 10 -13 6 0 10 -8 10 -19 0 -18 -2 -18 -34 -3 -19 9 -33 19 -30 24 3 5 11
5 17 1 9 -5 9 -3 0 8 -10 12 -8 15 8 15 10 0 19 -6 19 -13z m-30 -58 c0 -14
-4 -25 -10 -25 -11 0 -14 33 -3 43 11 11 13 8 13 -18z m-23 -70 c-6 -19 -12
-33 -14 -32 -6 7 9 67 17 67 5 0 3 -16 -3 -35z m166 -85 c21 0 21 -7 3 -25
-16 -16 -23 -10 -46 35 -13 24 -12 25 7 8 11 -10 27 -18 36 -18z"/>
<path d="M507 390 c-9 -14 -17 -30 -17 -36 0 -6 -10 -24 -22 -39 -14 -18 -18
-30 -11 -32 9 -3 8 -16 -3 -46 -29 -81 4 -127 89 -127 92 0 156 52 176 142 24
105 -17 152 -126 146 -36 -2 -64 0 -66 6 -2 5 -11 -1 -20 -14z m143 -40 c31
-31 28 -125 -5 -170 -32 -44 -43 -50 -87 -50 -49 0 -68 27 -68 98 0 60 20 115
47 131 31 18 91 13 113 -9z m46 -7 c-7 -7 -26 7 -26 19 0 6 6 6 15 -2 9 -7 13
-15 11 -17z m11 -48 c-1 -36 -17 -51 -17 -16 0 19 9 51 15 51 2 0 3 -16 2 -35z
m-7 -49 c0 -3 -4 -8 -10 -11 -5 -3 -10 -1 -10 4 0 6 5 11 10 11 6 0 10 -2 10
-4z m-207 -115 c-6 -8 -31 34 -26 42 3 5 11 -2 17 -15 7 -12 11 -25 9 -27z"/>
<path d="M545 319 c-4 -6 -5 -12 -2 -15 2 -3 7 2 10 11 7 17 1 20 -8 4z"/>
<path d="M555 160 c-3 -6 1 -7 9 -4 18 7 21 14 7 14 -6 0 -13 -4 -16 -10z"/>
<path d="M1241 400 c-61 -15 -74 -42 -86 -195 -9 -104 -3 -109 109 -95 85 11
116 23 116 46 0 13 -2 13 -22 0 -16 -11 -46 -16 -100 -16 -53 0 -78 -4 -78
-12 0 -6 -3 -8 -6 -5 -4 4 -2 12 3 19 6 7 14 34 17 61 l7 47 75 0 c65 0 74 2
74 18 0 16 -7 18 -57 14 -32 -2 -70 -11 -85 -19 -25 -12 -28 -12 -28 3 0 10 5
14 15 10 10 -3 15 1 15 13 0 10 5 33 11 51 l12 32 63 -6 c59 -6 64 -5 64 13 0
29 -48 38 -119 21z m-31 -64 c0 -3 -4 -8 -10 -11 -5 -3 -10 -1 -10 4 0 6 5 11
10 11 6 0 10 -2 10 -4z m-33 -148 c-3 -8 -6 -5 -6 6 -1 11 2 17 5 13 3 -3 4
-12 1 -19z"/>
<path d="M2058 386 c-23 -32 -36 -89 -39 -171 -3 -106 -1 -115 20 -115 24 0
29 18 29 90 0 35 10 81 28 128 14 40 25 74 23 76 -18 16 -46 12 -61 -8z m42
-6 c0 -5 -4 -10 -8 -10 -4 0 -9 -12 -10 -27 -1 -15 -7 -32 -12 -37 -6 -6 -10
-23 -10 -38 0 -15 -4 -28 -8 -28 -14 0 0 95 20 133 9 18 28 23 28 7z m-54
-227 c-10 -10 -19 5 -10 18 6 11 8 11 12 0 2 -7 1 -15 -2 -18z"/>
<path d="M1100 370 c-9 -6 -10 -10 -3 -10 6 0 15 5 18 10 8 12 4 12 -15 0z"/>
<path d="M1663 345 c0 -8 4 -12 9 -9 5 3 6 10 3 15 -9 13 -12 11 -12 -6z"/>
<path d="M2145 350 c3 -5 8 -10 11 -10 2 0 4 5 4 10 0 6 -5 10 -11 10 -5 0 -7
-4 -4 -10z"/>
<path d="M435 340 c-3 -6 1 -7 9 -4 18 7 21 14 7 14 -6 0 -13 -4 -16 -10z"/>
<path d="M90 329 c0 -5 5 -7 10 -4 6 3 10 8 10 11 0 2 -4 4 -10 4 -5 0 -10 -5
-10 -11z"/>
<path d="M820 329 c0 -5 5 -7 10 -4 6 3 10 8 10 11 0 2 -4 4 -10 4 -5 0 -10
-5 -10 -11z"/>
<path d="M1538 333 c7 -3 16 -2 19 1 4 3 -2 6 -13 5 -11 0 -14 -3 -6 -6z"/>
<path d="M1975 320 c-3 -5 -2 -10 4 -10 5 0 13 5 16 10 3 6 2 10 -4 10 -5 0
-13 -4 -16 -10z"/>
<path d="M1265 310 c-3 -5 -1 -10 4 -10 6 0 11 5 11 10 0 6 -2 10 -4 10 -3 0
-8 -4 -11 -10z"/>
<path d="M1654 304 c-18 -14 -18 -15 4 -4 12 6 22 13 22 15 0 8 -5 6 -26 -11z"/>
<path d="M2137 283 c-4 -3 -7 -11 -7 -17 0 -6 5 -5 12 2 6 6 9 14 7 17 -3 3
-9 2 -12 -2z"/>
<path d="M792 260 c0 -14 2 -19 5 -12 2 6 2 18 0 25 -3 6 -5 1 -5 -13z"/>
<path d="M1585 271 c-3 -5 -2 -12 3 -15 5 -3 9 1 9 9 0 17 -3 19 -12 6z"/>
<path d="M1980 270 c-9 -6 -10 -10 -3 -10 6 0 15 5 18 10 8 12 4 12 -15 0z"/>
<path d="M95 259 c-4 -6 -5 -12 -2 -15 2 -3 7 2 10 11 7 17 1 20 -8 4z"/>
<path d="M1100 231 c0 -6 4 -13 10 -16 6 -3 7 1 4 9 -7 18 -14 21 -14 7z"/>
<path d="M751 225 c1 -19 18 -51 18 -35 0 8 -4 22 -9 30 -5 8 -9 11 -9 5z"/>
<path d="M793 201 c1 -14 9 -26 17 -28 10 -3 11 -2 4 4 -7 4 -14 17 -17 28 -5
16 -5 15 -4 -4z"/>
<path d="M1248 213 c7 -3 16 -2 19 1 4 3 -2 6 -13 5 -11 0 -14 -3 -6 -6z"/>
<path d="M1285 210 c-3 -5 1 -10 9 -10 9 0 16 5 16 10 0 6 -4 10 -9 10 -6 0
-13 -4 -16 -10z"/>
<path d="M885 201 c-3 -6 -3 -10 2 -9 4 1 24 -6 43 -15 19 -10 28 -12 19 -5
-9 7 -16 17 -17 21 0 5 -4 12 -8 15 -4 4 -4 1 0 -5 9 -16 -6 -17 -21 -2 -8 8
-13 8 -18 0z"/>
<path d="M1855 190 c-3 -5 -1 -10 4 -10 6 0 11 5 11 10 0 6 -2 10 -4 10 -3 0
-8 -4 -11 -10z"/>
<path d="M1335 180 c-3 -5 -1 -10 4 -10 6 0 11 5 11 10 0 6 -2 10 -4 10 -3 0
-8 -4 -11 -10z"/>
<path d="M212 160 c0 -14 2 -19 5 -12 2 6 2 18 0 25 -3 6 -5 1 -5 -13z"/>
<path d="M1638 173 c7 -3 16 -2 19 1 4 3 -2 6 -13 5 -11 0 -14 -3 -6 -6z"/>
<path d="M978 163 c7 -3 16 -2 19 1 4 3 -2 6 -13 5 -11 0 -14 -3 -6 -6z"/>
<path d="M645 110 c-3 -6 1 -7 9 -4 18 7 21 14 7 14 -6 0 -13 -4 -16 -10z"/>
<path d="M1698 83 c7 -3 16 -2 19 1 4 3 -2 6 -13 5 -11 0 -14 -3 -6 -6z"/>
<path d="M2071 74 c0 -11 3 -14 6 -6 3 7 2 16 -1 19 -3 4 -6 -2 -5 -13z"/>
<path d="M80 70 c0 -5 5 -10 10 -10 6 0 10 5 10 10 0 6 -4 10 -10 10 -5 0 -10
-4 -10 -10z"/>
<path d="M145 71 c-3 -5 -1 -12 5 -16 5 -3 10 1 10 9 0 18 -6 21 -15 7z"/>
<path d="M1095 60 c3 -5 8 -10 11 -10 2 0 4 5 4 10 0 6 -5 10 -11 10 -5 0 -7
-4 -4 -10z"/>
<path d="M75 30 c-3 -5 -1 -10 4 -10 6 0 11 5 11 10 0 6 -2 10 -4 10 -3 0 -8
-4 -11 -10z"/>
<path d="M108 23 c7 -3 16 -2 19 1 4 3 -2 6 -13 5 -11 0 -14 -3 -6 -6z"/>
<path d="M558 23 c7 -3 16 -2 19 1 4 3 -2 6 -13 5 -11 0 -14 -3 -6 -6z"/>
<path d="M1388 23 c12 -2 32 -2 45 0 12 2 2 4 -23 4 -25 0 -35 -2 -22 -4z"/>
<path d="M1618 23 c12 -2 32 -2 45 0 12 2 2 4 -23 4 -25 0 -35 -2 -22 -4z"/>
</g>
</svg>
